<svg id="Layer_3" data-name="Layer 3" xmlns="http://www.w3.org/2000/svg" xmlns:xlink="http://www.w3.org/1999/xlink" viewBox="0 0 267.37 319.95"><defs><style>.cls-1{fill:none;}.cls-2{clip-path:url(#clip-path);}.cls-3{clip-path:url(#clip-path-2);}</style><clipPath id="clip-path" transform="translate(-386.33 -340.02)"><rect class="cls-1" x="386.33" y="340.02" width="133.68" height="319.95"/></clipPath><clipPath id="clip-path-2" transform="translate(-386.33 -340.02)"><rect class="cls-1" x="520.02" y="340.02" width="133.68" height="319.95"/></clipPath></defs><g id="_Mirror_Repeat_" data-name="&lt;Mirror Repeat&gt;"><g class="cls-2"><path d="M511.42,535.28c2.82-26.31-2.55-39.73-19.78-45.19-11.59-3.68-15.05-8.35-19-28-2.69-13.41-10.34-34.74-10.34-34.74s14.48,5.29,21.93,6.39c6.23.93,14.14,2,14.14,2s-.28,1.45-.42,2.1c-1.4,6.29-2.47,22.73,10.1,33.46,4.76,4.06,8.37,20.23,8.68,26.93Z" transform="translate(-386.33 -340.02)"/><path d="M481.45,514.42c-17.73-16.57-20.2-5.94-31.82-3.71-7.81,1.49-11.09.07-18.57-9.09s-19.32-20.29-19.32-20.29a54.29,54.29,0,0,0,27.62-1.26h0c0,.16,2.15,15.19,14.56,17.52,3.88.73,16.58-.19,18.52,3.25Z" transform="translate(-386.33 -340.02)"/><path d="M498.61,601c-18.21-22-23.7-40.5-39.53-40.61-10.65-.07-14.57-2.8-22-16.76-5.08-9.55-10.14-17.86-13.59-22-.49-.58-2.45-2.19-2.45-2.19s2.21.3,2.77.36c5.05.55,18.53,2.61,29.78-2.22h0v1.69c0,5.1,1.61,19.83,14.56,25,4.9,2,8.83.55,14.89,14.85Z" transform="translate(-386.33 -340.02)"/><path d="M498.22,534.43h0c-15.71-21.12-25.33-30.94-43.5-32.38-13.87-1.09-18.73-5-27.11-23.91a173.75,173.75,0,0,0-20.35-33.87s16.16,5.05,44.34,1.38h0c0,.18-3.45,26.59,16.44,36.28,6.2,3,15.3,12.95,18.17,20.55Z" transform="translate(-386.33 -340.02)"/><path d="M523.6,387.55l-.44,7c-9.07-.84-15.38,7.35-15.38,7.35l-3.89-.62-2-1.13c-5.29-2.94-7.51-8.8-7.2-14.84a1.23,1.23,0,0,0,0-.19c-.9-5.09-8.61-6.92-5.74-20.4A24.74,24.74,0,0,0,504,376.64s-3.58,3.37-2.62,5.3c0,0-.5,2.53,8.59,5.09,4.29,1.21,5.06-6.64,5.09-8.64,0,0,.48-6.82-5.36-2,.14-.26,4.91-8.51,6.19-13.43,0,0,.9-1,1.54-3.87L520.79,340c1.84,2.89,2.59,19,3.37,21.88C527.26,373.3,525.7,377.31,523.6,387.55Z" transform="translate(-386.33 -340.02)"/><path d="M529.37,548l-4.09,112s-3.44-5.43-5.13-14.79c-9.22-51.12-6.08-41.92-16.45-70.19-5-13.67-16.51-32.6-16.9-33-1.08-1.12,30.22,26.11,24.59-32.27-2.22-23.69-20.91-45.36-13.17-54.21,1.19,1.39,2.8,10.83,11.67,13,5.21,1.31,10.24,8.58,12.72,16.57,1.37,4.42,4.9,8.17,6.49,10.11C524.25,505.62,529.37,536.17,529.37,548Z" transform="translate(-386.33 -340.02)"/><path d="M521.28,388.91s-2.14,51.47-14.19,51.94c12.38,0,15.14,34,15.14,34Z" transform="translate(-386.33 -340.02)"/><path d="M386.33,512.38c11.31,0,14.19-20.74,14.19-20.74s2.88,20.74,14.18,20.74c-11,.33-14.18,31.68-14.18,31.68S397.34,512.71,386.33,512.38Z" transform="translate(-386.33 -340.02)"/></g></g><g id="_Mirror_Repeat_2" data-name="&lt;Mirror Repeat&gt;"><g class="cls-3"><path d="M528.61,535.28c-2.82-26.31,2.55-39.73,19.78-45.19,11.59-3.68,15.06-8.35,19-28,2.69-13.41,10.35-34.74,10.35-34.74s-14.49,5.29-21.94,6.39c-6.23.93-14.14,2-14.14,2s.28,1.45.43,2.1c1.39,6.29,2.46,22.73-10.11,33.46-4.76,4.06-8.37,20.23-8.67,26.93Z" transform="translate(-386.33 -340.02)"/><path d="M558.58,514.42c17.73-16.57,20.2-5.94,31.82-3.71,7.81,1.49,11.09.07,18.57-9.09s19.32-20.29,19.32-20.29a54.29,54.29,0,0,1-27.62-1.26h0c0,.16-2.15,15.19-14.56,17.52-3.88.73-16.58-.19-18.52,3.25Z" transform="translate(-386.33 -340.02)"/><path d="M541.42,601c18.21-22,23.7-40.5,39.53-40.61,10.65-.07,14.58-2.8,22-16.76,5.08-9.55,10.14-17.86,13.59-22,.49-.58,2.45-2.19,2.45-2.19s-2.21.3-2.77.36c-5.05.55-18.52,2.61-29.78-2.22h0v1.69c0,5.1-1.6,19.83-14.56,25-4.9,2-8.82.55-14.89,14.85Z" transform="translate(-386.33 -340.02)"/><path d="M541.81,534.43h0c15.72-21.12,25.33-30.94,43.5-32.38,13.87-1.09,18.73-5,27.11-23.91a173.75,173.75,0,0,1,20.35-33.87s-16.16,5.05-44.34,1.38h0c0,.18,3.44,26.59-16.45,36.28-6.2,3-15.3,12.95-18.17,20.55Z" transform="translate(-386.33 -340.02)"/><path d="M516.43,387.55l.44,7c9.07-.84,15.38,7.35,15.38,7.35l3.89-.62,2-1.13c5.29-2.94,7.51-8.8,7.2-14.84a1.23,1.23,0,0,1,0-.19c.9-5.09,8.61-6.92,5.74-20.4A24.74,24.74,0,0,1,536,376.64s3.58,3.37,2.63,5.3c0,0,.49,2.53-8.6,5.09-4.29,1.21-5.06-6.64-5.08-8.64,0,0-.49-6.82,5.36-2-.15-.26-4.92-8.51-6.2-13.43,0,0-.9-1-1.54-3.87L519.24,340c-1.84,2.89-2.59,19-3.37,21.88C512.78,373.3,514.34,377.31,516.43,387.55Z" transform="translate(-386.33 -340.02)"/><path d="M510.66,548l4.09,112s3.44-5.43,5.13-14.79c9.22-51.12,6.09-41.92,16.46-70.19,5-13.67,16.5-32.6,16.89-33,1.08-1.12-30.22,26.11-24.59-32.27,2.22-23.69,20.91-45.36,13.17-54.21-1.19,1.39-2.8,10.83-11.67,13-5.21,1.31-10.23,8.58-12.72,16.57-1.37,4.42-4.9,8.17-6.48,10.11C515.78,505.62,510.66,536.17,510.66,548Z" transform="translate(-386.33 -340.02)"/><path d="M518.75,388.91s2.14,51.47,14.19,51.94c-12.38,0-15.14,34-15.14,34Z" transform="translate(-386.33 -340.02)"/><path d="M653.7,512.38c-11.31,0-14.19-20.74-14.19-20.74s-2.87,20.74-14.18,20.74c11,.33,14.18,31.68,14.18,31.68S642.69,512.71,653.7,512.38Z" transform="translate(-386.33 -340.02)"/></g></g></svg>